HIERARCHY
ROOT Hips
{
  OFFSET 51.2667 84.4104 9.60434
  CHANNELS 6 Xposition Yposition Zposition Zrotation Xrotation Yrotation
  JOINT spine
  {
    OFFSET 0 5.95438 0.342407
    CHANNELS 3 Zrotation Xrotation Yrotation
    JOINT spine1
    {
      OFFSET 0 8.85602 0
      CHANNELS 3 Zrotation Xrotation Yrotation
      JOINT spine2
      {
        OFFSET 0 8.48567 0
        CHANNELS 3 Zrotation Xrotation Yrotation
        JOINT Neck
        {
          OFFSET 0 21.7863 1.0387
          CHANNELS 3 Zrotation Xrotation Yrotation
          JOINT Head
          {
            OFFSET 0 6.5822 0
            CHANNELS 3 Zrotation Xrotation Yrotation
            End Site
            {
              OFFSET 0 15.9326 -5.25436
            }
          }
        }
        JOINT RightShoulder
        {
          OFFSET -3.57307 9.16386 -0.497525
          CHANNELS 3 Zrotation Xrotation Yrotation
          JOINT RightArm
          {
            OFFSET 0 12.0192 0
            CHANNELS 3 Zrotation Xrotation Yrotation
            JOINT RightArmRoll
            {
              OFFSET 0 6.06755 0
              CHANNELS 3 Zrotation Xrotation Yrotation
              JOINT RightForeArm
              {
                OFFSET 0 17.6726 0
                CHANNELS 3 Zrotation Xrotation Yrotation
                JOINT RightForeArmRoll
                {
                  OFFSET 0 6.80872 0
                  CHANNELS 3 Zrotation Xrotation Yrotation
                  JOINT RightHand
                  {
                    OFFSET 0 13.6636 0
                    CHANNELS 3 Zrotation Xrotation Yrotation
                    End Site
                    {
                      OFFSET 0 0 0
                    }
                  }
                }
              }
            }
          }
        }
        JOINT LeftShoulder
        {
          OFFSET 3.57307 9.16386 -0.497525
          CHANNELS 3 Zrotation Xrotation Yrotation
          JOINT LeftArm
          {
            OFFSET 0 12.0192 0
            CHANNELS 3 Zrotation Xrotation Yrotation
            JOINT LeftArmRoll
            {
              OFFSET 0 6.06755 0
              CHANNELS 3 Zrotation Xrotation Yrotation
              JOINT LeftForeArm
              {
                OFFSET 0 17.6726 0
                CHANNELS 3 Zrotation Xrotation Yrotation
                JOINT LeftForeArmRoll
                {
                  OFFSET 0 6.80872 0
                  CHANNELS 3 Zrotation Xrotation Yrotation
                  JOINT LeftHand
                  {
                    OFFSET 0 13.6636 0
                    CHANNELS 3 Zrotation Xrotation Yrotation
                    End Site
                    {
                      OFFSET 0 0 0
                    }
                  }
                }
              }
            }
          }
        }
      }
    }
  }
  JOINT RightUpLeg
  {
    OFFSET -5.27774 -0.967797 -0.811858
    CHANNELS 3 Zrotation Xrotation Yrotation
    JOINT RightUpLegRoll
    {
      OFFSET 0 16.0214 0
      CHANNELS 3 Zrotation Xrotation Yrotation
      JOINT RightLeg
      {
        OFFSET 0 -19.8401 0
        CHANNELS 3 Zrotation Xrotation Yrotation
        JOINT RightLegRoll
        {
          OFFSET 0 19.905 0
          CHANNELS 3 Zrotation Xrotation Yrotation
          JOINT RightFoot
          {
            OFFSET 0 16.5675 0
            CHANNELS 3 Zrotation Xrotation Yrotation
            JOINT RightToeBase
            {
              OFFSET 0 13.8496 0
              CHANNELS 3 Zrotation Xrotation Yrotation
              End Site
              {
                OFFSET 0.00587034 6.70728 -0.773117
              }
            }
          }
        }
      }
    }
  }
  JOINT LeftUpLeg
  {
    OFFSET 5.27774 -0.967797 -0.811858
    CHANNELS 3 Zrotation Xrotation Yrotation
    JOINT LeftUpLegRoll
    {
      OFFSET 0 16.0215 0
      CHANNELS 3 Zrotation Xrotation Yrotation
      JOINT LeftLeg
      {
        OFFSET 0 19.84 0
        CHANNELS 3 Zrotation Xrotation Yrotation
        JOINT LeftLegRoll
        {
          OFFSET 0 20.089 0
          CHANNELS 3 Zrotation Xrotation Yrotation
          JOINT LeftFoot
          {
            OFFSET 0 16.3835 0
            CHANNELS 3 Zrotation Xrotation Yrotation
            JOINT LeftToeBase
            {
              OFFSET 0 13.8496 0
              CHANNELS 3 Zrotation Xrotation Yrotation
              End Site
              {
                OFFSET -0.0263083 6.70727 -0.773117
              }
            }
          }
        }
      }
    }
  }
}
MOTION
Frames: 8
Frame Time: 0.00208333
48.1157 83.4724 5.46313 -1.17962 5.2987 20.4405 -0.35564 -0.197125 0.0613794 -0.712926 3.60794 0.167407 -0.71589 5.25294 0.178847 -46.2228 -8.71993 -10.3188 43.6692 6.75782 -16.8194 1.99866 -9.51701 -5.0612 72.2251 74.9264 8.55073 -1.14301e-015 9.93923e-015 1.84287e-014 -5.41855 57.0994 0.49604 -8.07045e-007 -3.21341e-006 -2.99938 8.03009 -4.95137 0.697628 -82.9349 -7.96194 5.5491 -147.423 75.5375 77.0966 -3.97569e-015 -9.54166e-015 -3.97569e-015 175.535 74.4951 -170.99 3.70192e-006 -2.44031e-006 3 -8.0301 -4.95138 -0.697621 -177.424 14.1149 -1.63702 180 7.0158e-015 179.079 -179.916 16.4404 179.292 -4.12723e-006 1.70326e-006 0.189799 -18.4369 67.7774 19.3515 8.1427 25.2323 -3.49038 -178.522 20.7437 2.22376 4.54188e-006 -4.6773e-006 -0.849868 0.117604 -18.1883 0.636224 1.5033e-006 1.23405e-006 -0.291531 19.3687 68.9602 -20.363 -8.13649 25.2327 3.48774 
48.1508 83.4954 5.45721 -1.22902 5.26411 20.3657 -0.347423 -0.199329 0.0611808 -0.696454 3.60355 0.165896 -0.699376 5.24855 0.176957 -46.0095 -8.716 -10.231 43.5471 6.66485 -16.6605 2.36507 -9.36635 -4.79858 73.5765 73.8814 7.25785 -7.95139e-016 1.64246e-014 1.59218e-014 -5.64367 59.2983 0.741494 -8.07045e-007 -3.21341e-006 -2.99949 8.03009 -4.95137 0.697628 -82.5744 -7.97616 5.54546 -149.012 75.7554 78.6371 1.59028e-015 -3.18055e-015 -4.77083e-015 175.201 75.226 -170.65 3.70192e-006 -2.44031e-006 3 -8.0301 -4.95138 -0.697621 -177.332 14.0139 -1.69806 180 7.0158e-015 179.079 -179.894 16.3063 179.294 -4.12723e-006 1.70326e-006 0.184855 -18.4076 67.7389 19.3193 8.1427 25.2323 -3.49038 -178.393 20.7211 2.11082 4.54188e-006 -4.6773e-006 -0.8507 0.0742733 -18.2173 0.629991 1.5033e-006 1.23405e-006 -0.293882 19.3982 68.9962 -20.3953 -8.13649 25.2327 3.48774 
48.1633 83.4899 5.46365 -1.279 5.22965 20.2914 -0.33884 -0.201115 0.0609923 -0.679253 3.6 0.164378 -0.682132 5.24501 0.175063 -45.7898 -8.72516 -10.1487 43.417 6.58249 -16.5055 2.73795 -9.21937 -4.54523 74.7867 72.856 6.09788 -7.95139e-016 4.87022e-015 -6.95746e-015 -5.90016 61.4503 1.01595 -8.07045e-007 -3.21341e-006 -2.99961 8.03009 -4.95137 0.697628 -82.2052 -7.98865 5.54063 -150.679 75.9698 80.252 3.18055e-015 3.18055e-015 5.1684e-015 174.819 75.9826 -170.262 3.70192e-006 -2.44031e-006 3 -8.0301 -4.95138 -0.697621 -177.242 13.916 -1.75749 180 7.0158e-015 179.079 -179.873 16.1763 179.296 -4.12723e-006 1.70326e-006 0.18007 -18.3794 67.7015 19.2883 8.1427 25.2323 -3.49038 -178.267 20.7005 2.00131 4.54188e-006 -4.6773e-006 -0.85152 0.0333057 -18.2483 0.624268 1.5033e-006 1.23405e-006 -0.296191 19.427 69.0313 -20.4267 -8.13649 25.2327 3.48774 
48.1793 83.5039 5.46793 -1.32815 5.19562 20.2178 -0.33 -0.20236 0.0607919 -0.661538 3.59753 0.162826 -0.664373 5.24254 0.173144 -45.5641 -8.74912 -10.0724 43.2753 6.51329 -16.3554 3.11539 -9.07747 -4.30372 75.8842 71.8567 5.04168 -3.97569e-016 6.16232e-015 3.24267e-015 -6.19221 63.5468 1.32348 -8.07045e-007 -3.21341e-006 -2.99973 8.03009 -4.95137 0.697628 -81.8266 -7.99804 5.5341 -152.413 76.1837 81.93 -3.97569e-015 -6.36111e-015 -6.36111e-015 174.379 76.7639 -169.816 3.70192e-006 -2.44031e-006 3 -8.0301 -4.95138 -0.697621 -177.156 13.822 -1.81398 180 7.0158e-015 179.079 -179.854 16.0517 179.298 -4.12723e-006 1.70326e-006 0.17551 -18.3525 67.6659 19.2588 8.1427 25.2323 -3.49038 -178.147 20.6807 1.89667 4.54188e-006 -4.6773e-006 -0.852313 -0.00519864 -18.2796 0.618979 1.5033e-006 1.23405e-006 -0.298395 19.4545 69.0646 -20.4567 -8.13649 25.2327 3.48774 
48.1555 83.4971 5.48113 -1.37508 5.16234 20.145 -0.32101 -0.202941 0.0605577 -0.643522 3.59639 0.161214 -0.646314 5.24141 0.171184 -45.3333 -8.78959 -10.0027 43.1182 6.45979 -16.2111 3.49552 -8.94205 -4.07667 76.8917 70.8896 4.0658 -1.98005e-030 1.31198e-014 8.64713e-015 -6.52453 65.5796 1.66874 -8.07045e-007 -3.21341e-006 -2.99983 8.03009 -4.95137 0.697628 -81.4377 -8.00298 5.52535 -154.205 76.4007 83.6607 5.56597e-015 -3.18055e-015 -7.95139e-016 173.867 77.5688 -169.298 3.70192e-006 -2.44031e-006 3 -8.0301 -4.95138 -0.697621 -177.076 13.7323 -1.86619 180 7.0158e-015 179.079 -179.836 15.9339 179.3 -4.12723e-006 1.70326e-006 0.171245 -18.3277 67.6326 19.2315 8.1427 25.2323 -3.49038 -178.034 20.6606 1.79834 4.54188e-006 -4.6773e-006 -0.853064 -0.0411389 -18.3098 0.614049 1.5033e-006 1.23405e-006 -0.300432 19.4802 69.0957 -20.4848 -8.13649 25.2327 3.48774 
48.1982 83.5075 5.46455 -1.41835 5.13012 20.0733 -0.311976 -0.202732 0.0602677 -0.625423 3.59683 0.159517 -0.628169 5.24185 0.169162 -45.098 -8.84828 -9.94023 42.9421 6.42455 -16.0736 3.87651 -8.8145 -3.86664 77.8278 69.9607 3.151 -1.59028e-015 1.82882e-014 -4.02539e-015 -6.90227 67.5401 2.05691 -8.07045e-007 -3.21341e-006 -2.99992 8.03009 -4.95137 0.697628 -81.0376 -8.00212 5.51387 -156.047 76.6247 85.4355 7.95139e-016 0 1.98785e-015 173.268 78.3961 -168.693 3.70192e-006 -2.44031e-006 3 -8.0301 -4.95138 -0.697621 -177.004 13.6475 -1.91282 180 7.0158e-015 179.078 -179.821 15.8244 179.302 -4.12723e-006 1.70326e-006 0.167341 -18.3051 67.6023 19.2067 8.1427 25.2323 -3.49038 -177.931 20.6391 1.70774 4.54188e-006 -4.6773e-006 -0.853758 -0.0744143 -18.3374 0.6094 1.5033e-006 1.23405e-006 -0.302239 19.5037 69.1238 -20.5104 -8.13649 25.2327 3.48774 
48.2048 83.5145 5.49434 -1.45657 5.09926 20.0028 -0.303007 -0.201611 0.0599 -0.607454 3.59909 0.157707 -0.610156 5.24412 0.167062 -44.8588 -8.92689 -9.88553 42.743 6.41013 -15.9441 4.25657 -8.69625 -3.67622 78.7077 69.0759 2.28121 -7.95139e-016 -3.97569e-015 -3.05631e-015 -7.33103 69.4201 2.49363 -8.07045e-007 -3.21341e-006 -2.99998 8.03009 -4.95137 0.697628 -80.6255 -7.9941 5.49914 -157.935 76.8598 87.2476 7.95139e-016 3.18055e-015 -3.97569e-015 172.557 79.2444 -167.976 3.70192e-006 -2.44031e-006 3 -8.0301 -4.95138 -0.697621 -176.941 13.5684 -1.95253 180 7.0158e-015 179.078 -179.808 15.7246 179.304 -4.12723e-006 1.70326e-006 0.163865 -18.2854 67.5757 19.185 8.1427 25.2323 -3.49038 -177.839 20.6152 1.62633 4.54188e-006 -4.6773e-006 -0.854381 -0.104923 -18.3606 0.604957 1.5033e-006 1.23405e-006 -0.303753 19.5242 69.1484 -20.5329 -8.13649 25.2327 3.48774 
48.2216 83.5174 5.4889 -1.48832 5.07009 19.9338 -0.294209 -0.199454 0.0594325 -0.58983 3.60343 0.155758 -0.592487 5.24845 0.164863 -44.6165 -9.02712 -9.83921 42.5173 6.41909 -15.8233 4.63393 -8.58869 -3.50799 79.5448 68.2408 1.4427 -1.19271e-015 2.38542e-015 -3.27995e-015 -7.8166 71.211 2.98482 -8.07045e-007 -3.21341e-006 -3 8.03009 -4.95137 0.697628 -80.2005 -7.97757 5.48065 -159.864 77.1105 89.0924 -4.77083e-015 -6.36111e-015 -7.95139e-015 171.703 80.1125 -167.117 3.70192e-006 -2.44031e-006 3 -8.0301 -4.95138 -0.697621 -176.891 13.4954 -1.98401 180 7.0158e-015 179.078 -179.797 15.6359 179.306 -4.12723e-006 1.70326e-006 0.160887 -18.269 67.5532 19.1668 8.1427 25.2323 -3.49038 -177.76 20.5877 1.55555 4.54188e-006 -4.6773e-006 -0.854918 -0.132564 -18.3782 0.600642 1.5033e-006 1.23405e-006 -0.304912 19.5414 69.1689 -20.5517 -8.13649 25.2327 3.48774 
